<svg xmlns="http://www.w3.org/2000/svg" viewBox="0 0 97.91 97.91"><defs><style>.cls-1{fill:#1d262d;}.cls-2{fill:#30bf39;fill-rule:evenodd;}</style></defs><g id="Слой_2" data-name="Слой 2"><g id="Слой_1-2" data-name="Слой 1"><g id="Слой_2-2" data-name="Слой 2"><g id="OBJECTS"><rect class="cls-1" width="97.91" height="97.91" rx="23.09"/><path class="cls-2" d="M63.35,53.94c-.71-.39-4.21-2.27-4.87-2.54s-1.13-.41-1.64.3-2,2.29-2.4,2.76-.87.51-1.59.12a20.09,20.09,0,0,1-5.69-3.82,21.9,21.9,0,0,1-3.85-5.17c-.4-.74,0-1.12.38-1.47s.75-.82,1.13-1.23a5.1,5.1,0,0,0,.77-1.18,1.3,1.3,0,0,0,0-1.27c-.17-.37-1.49-4-2-5.47S42.43,33.71,42,33.7s-.91-.1-1.39-.11a2.66,2.66,0,0,0-2,.83,8.12,8.12,0,0,0-2.76,6C35.72,44,38.19,47.54,38.54,48s4.71,8.24,12,11.42,7.31,2.21,8.64,2.14,4.36-1.6,5-3.27a6.14,6.14,0,0,0,.51-3.48c-.17-.31-.65-.51-1.36-.9ZM50,71.14a23.56,23.56,0,0,1-13-3.91l-9.09,2.91,2.94-8.76A23.66,23.66,0,1,1,50,71.16Zm0-52.06A28.42,28.42,0,0,0,25.69,62.16L20.56,77.38l15.73-5A28.42,28.42,0,1,0,50,19.08Z"/></g></g></g></g></svg>